<?xml version="1.0" encoding="UTF-8" standalone="no"?><!-- Generator: Gravit.io --><svg xmlns="http://www.w3.org/2000/svg" xmlns:xlink="http://www.w3.org/1999/xlink" style="isolation:isolate" viewBox="0 0 943.428 1572.9" width="943.428pt" height="1572.9pt"><defs><clipPath id="_clipPath_T7ZQOtzhx7Fr6DWpbTLU8EJoyNlR0vUI"><rect width="943.428" height="1572.9"/></clipPath></defs><g clip-path="url(#_clipPath_T7ZQOtzhx7Fr6DWpbTLU8EJoyNlR0vUI)"><g><g><rect x="314.801" y="0.432" width="532.264" height="313.477" transform="matrix(1,0,0,1,0,0)" fill="rgb(230,230,230)"/><rect x="314.476" y="0" width="532.264" height="32.399" transform="matrix(1,0,0,1,0,0)" fill="rgb(0,100,255)"/><rect x="326.75" y="42.351" width="507.512" height="255.961" transform="matrix(1,0,0,1,0,0)" fill="rgb(255,255,255)"/><circle vector-effect="non-scaling-stroke" cx="364.91390500000784" cy="16.116799999999984" r="5.3594699999999875" fill="rgb(255,255,255)"/><circle vector-effect="non-scaling-stroke" cx="385.25754500000784" cy="16.116799999999984" r="5.3594699999999875" fill="rgb(255,255,255)"/><circle vector-effect="non-scaling-stroke" cx="344.5174550000078" cy="16.116799999999984" r="5.3594699999999875" fill="rgb(255,255,255)"/><rect x="385.941" y="86.552" width="389.129" height="10.164" transform="matrix(1,0,0,1,0,0)" fill="rgb(230,230,230)"/><rect x="511.135" y="111.96" width="138.743" height="10.164" transform="matrix(1,0,0,1,0,0)" fill="rgb(230,230,230)"/><rect x="511.135" y="163.5" width="138.743" height="10.164" transform="matrix(1,0,0,1,0,0)" fill="rgb(230,230,230)"/><rect x="511.135" y="189.899" width="138.743" height="10.164" transform="matrix(1,0,0,1,0,0)" fill="rgb(230,230,230)"/><rect x="442.305" y="137.369" width="276.402" height="10.164" transform="matrix(1,0,0,1,0,0)" fill="rgb(230,230,230)"/><rect x="702.071" y="236.062" width="73" height="18.049" transform="matrix(1,0,0,1,0,0)" fill="rgb(0,100,255)"/><path d=" M 845.707 529.365 L 833.448 529.364 L 827.615 482.076 L 845.71 482.077 L 845.707 529.365 L 845.707 529.365 Z " fill="rgb(159,97,106)"/><path d=" M 824.69 525.861 L 848.334 525.861 L 848.334 540.748 L 809.804 540.748 L 809.804 540.748 C 809.804 532.526 816.469 525.861 824.69 525.861 L 824.69 525.861 Z " fill="rgb(47,46,65)"/><path d=" M 891.707 529.365 L 879.448 529.364 L 873.615 482.076 L 891.71 482.077 L 891.707 529.365 L 891.707 529.365 Z " fill="rgb(159,97,106)"/><path d=" M 870.69 525.861 L 894.334 525.861 L 894.334 540.748 L 855.804 540.748 L 855.804 540.748 C 855.804 536.8 857.372 533.013 860.164 530.221 C 862.956 527.429 866.742 525.861 870.69 525.861 L 870.69 525.861 Z " fill="rgb(47,46,65)"/><path d=" M 890.21 388.526 C 887.536 386.806 885.761 383.99 885.363 380.836 C 884.965 377.682 885.985 374.513 888.148 372.183 L 880.075 257.625 L 903.328 259.88 L 903.967 372.067 C 907.723 376.047 907.909 382.208 904.399 386.407 C 900.889 390.606 894.793 391.517 890.21 388.526 L 890.21 388.526 Z " fill="rgb(159,97,106)"/><path d=" M 845.128 505.542 L 831.632 504.898 C 829.245 504.785 827.362 502.825 827.346 500.435 L 826.404 363.879 C 826.395 362.567 826.959 361.317 827.948 360.455 C 828.937 359.593 830.252 359.205 831.55 359.393 L 885.544 367.231 C 887.75 367.54 889.392 369.424 889.398 371.651 L 896.342 498.185 C 896.351 499.385 895.881 500.538 895.036 501.389 C 894.191 502.241 893.041 502.719 891.842 502.719 L 877.292 502.719 C 875.073 502.728 873.183 501.112 872.847 498.919 C 872.847 498.919 861.856 404.007 860.347 404.062 C 858.83 404.091 849.811 501.582 849.811 501.582 C 849.533 503.841 847.618 505.54 845.342 505.548 Q 845.236 505.548 845.128 505.542 Z " fill="rgb(47,46,65)"/><path d=" M 885.339 296.118 C 884.236 295.325 883.552 294.074 883.48 292.717 L 881.776 261.841 C 881.427 255.506 885.918 249.929 892.182 248.919 C 898.446 247.908 904.462 251.79 906.123 257.915 L 913.607 285.519 C 914.255 287.918 912.839 290.387 910.442 291.04 L 889.151 296.813 C 887.841 297.171 886.439 296.915 885.339 296.118 Z " fill="rgb(63,61,86)"/><circle vector-effect="non-scaling-stroke" cx="865.4507750000076" cy="198.17615999999984" r="24.56102999999996" fill="rgb(159,97,106)"/><path d=" M 776.447 246.431 C 776.57 246.97 776.65 247.519 776.686 248.071 L 819.644 272.853 L 830.085 266.842 L 841.216 281.414 L 818.879 297.335 L 769.871 258.672 C 765.779 260.187 761.176 259.011 758.311 255.719 C 755.447 252.427 754.918 247.706 756.983 243.862 C 759.048 240.018 763.276 237.852 767.602 238.423 C 771.928 238.994 775.45 242.182 776.447 246.431 L 776.447 246.431 Z " fill="rgb(159,97,106)"/><path d=" M 821.178 270.746 C 821.033 269.395 821.509 268.051 822.471 267.092 L 844.335 245.224 C 848.821 240.737 855.971 240.361 860.903 244.353 C 865.835 248.346 866.957 255.417 863.503 260.74 L 847.933 284.732 C 846.578 286.814 843.794 287.407 841.708 286.057 L 823.204 274.049 C 822.063 273.311 821.318 272.097 821.178 270.746 Z " fill="rgb(63,61,86)"/><path d=" M 882.831 217.608 C 878.249 222.489 869.74 219.868 869.143 213.201 C 869.096 212.683 869.1 212.162 869.153 211.645 C 869.461 208.691 871.168 206.01 870.759 202.891 C 870.667 202.115 870.377 201.375 869.919 200.742 C 866.268 195.853 857.697 202.929 854.251 198.503 C 852.138 195.789 854.622 191.516 853 188.483 C 850.86 184.479 844.521 186.454 840.546 184.261 C 836.123 181.822 836.388 175.036 839.299 170.909 C 842.85 165.875 849.075 163.189 855.223 162.802 C 861.37 162.415 867.476 164.077 873.215 166.314 C 879.736 168.855 886.203 172.367 890.216 178.101 C 895.096 185.074 895.566 194.449 893.125 202.603 C 891.64 207.563 886.573 213.622 882.831 217.608 Z " fill="rgb(47,46,65)"/><path d=" M 942.428 540.562 L 749.428 540.562 C 748.875 540.562 748.428 540.114 748.428 539.562 C 748.428 539.01 748.875 538.562 749.428 538.562 L 942.428 538.562 C 942.98 538.562 943.428 539.01 943.428 539.562 C 943.428 540.114 942.98 540.562 942.428 540.562 Z " fill="rgb(63,61,86)"/><path d=" M 889.966 239.143 Q 889.326 238.683 888.661 238.24 C 886.303 236.672 883.749 235.419 881.065 234.516 L 881.065 228.062 L 862.065 228.062 L 862.065 234.05 C 849.19 237.602 839.68 248.499 837.902 261.736 L 824.965 357.787 C 824.797 359 825.133 360.229 825.896 361.188 C 826.642 362.14 827.745 362.745 828.949 362.861 C 833.432 363.308 842.73 365.046 854.629 371.657 C 860.351 374.827 866.793 376.471 873.334 376.431 C 878.528 376.411 883.679 375.494 888.561 373.72 C 890.252 373.097 891.403 371.517 891.479 369.716 C 891.944 359.379 894.669 306.172 902.603 273.717 C 905.756 260.698 900.771 247.06 889.966 239.143 Z " fill="rgb(63,61,86)"/></g><g><path d=" M 698.173 1381.82 L 559.703 1381.82 C 558.695 1381.819 557.878 1381.002 557.876 1379.993 L 557.876 1227.64 C 557.878 1226.632 558.695 1225.815 559.703 1225.813 L 698.173 1225.813 C 699.181 1225.814 699.998 1226.632 700 1227.64 L 700 1379.993 C 699.998 1381.002 699.181 1381.819 698.173 1381.82 L 698.173 1381.82 Z " fill="rgb(255,255,255)"/><path d=" M 698.173 1381.82 L 559.703 1381.82 C 558.695 1381.819 557.878 1381.002 557.876 1379.993 L 557.876 1227.64 C 557.878 1226.632 558.695 1225.815 559.703 1225.813 L 698.173 1225.813 C 699.181 1225.814 699.998 1226.632 700 1227.64 L 700 1379.993 C 699.998 1381.002 699.181 1381.819 698.173 1381.82 L 698.173 1381.82 Z  M 559.703 1226.544 C 559.098 1226.545 558.608 1227.035 558.607 1227.64 L 558.607 1379.993 C 558.608 1380.598 559.098 1381.089 559.703 1381.089 L 698.173 1381.089 C 698.778 1381.089 699.268 1380.598 699.269 1379.993 L 699.269 1227.64 C 699.268 1227.035 698.778 1226.545 698.173 1226.544 L 559.703 1226.544 Z " fill="rgb(63,61,86)"/><path d=" M 619.439 1283.905 L 585.095 1283.905 C 584.087 1283.904 583.27 1283.086 583.269 1282.078 L 583.269 1247.735 C 583.27 1246.726 584.087 1245.909 585.095 1245.908 L 619.439 1245.908 C 620.447 1245.909 621.264 1246.726 621.266 1247.735 L 621.266 1282.078 C 621.264 1283.086 620.447 1283.904 619.439 1283.905 L 619.439 1283.905 Z  M 585.095 1246.639 C 584.49 1246.639 584 1247.13 583.999 1247.735 L 583.999 1282.078 C 584 1282.683 584.49 1283.173 585.095 1283.174 L 619.439 1283.174 C 620.044 1283.173 620.534 1282.683 620.535 1282.078 L 620.535 1247.735 C 620.534 1247.13 620.044 1246.639 619.439 1246.639 L 585.095 1246.639 Z " fill="rgb(242,242,242)"/><path d=" M 609.574 1288.106 L 575.231 1288.106 C 574.323 1288.105 573.588 1287.37 573.587 1286.462 L 573.587 1252.119 C 573.588 1251.211 574.323 1250.476 575.231 1250.475 L 609.574 1250.475 C 610.482 1250.476 611.217 1251.211 611.218 1252.119 L 611.218 1286.462 C 611.217 1287.37 610.482 1288.105 609.574 1288.106 L 609.574 1288.106 Z " fill="rgb(0,100,255)"/><path d=" M 682.645 1304.913 L 575.231 1304.913 C 574.643 1304.914 574.099 1304.601 573.804 1304.092 C 573.51 1303.582 573.51 1302.955 573.804 1302.446 C 574.099 1301.936 574.643 1301.623 575.231 1301.624 L 682.645 1301.624 C 683.553 1301.624 684.289 1302.361 684.289 1303.269 C 684.289 1304.177 683.553 1304.913 682.645 1304.913 L 682.645 1304.913 Z " fill="rgb(204,204,204)"/><path d=" M 656.705 1316.239 L 575.231 1316.239 C 574.643 1316.24 574.099 1315.927 573.804 1315.418 C 573.51 1314.908 573.51 1314.281 573.804 1313.772 C 574.099 1313.262 574.643 1312.949 575.231 1312.95 L 656.705 1312.95 C 657.613 1312.95 658.349 1313.687 658.349 1314.595 C 658.349 1315.503 657.613 1316.239 656.705 1316.239 L 656.705 1316.239 Z " fill="rgb(204,204,204)"/><path d=" M 682.28 1263.262 L 634.784 1263.262 C 633.876 1263.262 633.14 1262.526 633.14 1261.618 C 633.14 1260.71 633.876 1259.974 634.784 1259.974 L 682.28 1259.974 C 682.868 1259.973 683.412 1260.286 683.706 1260.795 C 684.001 1261.304 684.001 1261.932 683.706 1262.441 C 683.412 1262.95 682.868 1263.263 682.28 1263.262 L 682.28 1263.262 Z " fill="rgb(0,100,255)"/><path d=" M 670.426 1274.588 L 634.784 1274.588 C 633.876 1274.588 633.14 1273.852 633.14 1272.944 C 633.14 1272.036 633.876 1271.3 634.784 1271.3 L 670.426 1271.3 C 671.334 1271.3 672.07 1272.036 672.07 1272.944 C 672.07 1273.852 671.334 1274.588 670.426 1274.588 L 670.426 1274.588 Z " fill="rgb(0,100,255)"/><path d=" M 682.645 1327.565 L 575.231 1327.565 C 574.323 1327.565 573.587 1326.829 573.587 1325.921 C 573.587 1325.013 574.323 1324.276 575.231 1324.276 L 682.645 1324.276 C 683.233 1324.275 683.777 1324.588 684.072 1325.098 C 684.366 1325.607 684.366 1326.234 684.072 1326.744 C 683.777 1327.253 683.233 1327.566 682.645 1327.565 L 682.645 1327.565 Z " fill="rgb(204,204,204)"/><path d=" M 656.705 1338.891 L 575.231 1338.891 C 574.323 1338.891 573.587 1338.155 573.587 1337.247 C 573.587 1336.339 574.323 1335.602 575.231 1335.602 L 656.705 1335.602 C 657.293 1335.601 657.837 1335.914 658.132 1336.424 C 658.426 1336.933 658.426 1337.56 658.132 1338.07 C 657.837 1338.579 657.293 1338.892 656.705 1338.891 L 656.705 1338.891 Z " fill="rgb(204,204,204)"/><path d=" M 682.645 1350.217 L 575.231 1350.217 C 574.643 1350.218 574.099 1349.905 573.804 1349.396 C 573.51 1348.886 573.51 1348.259 573.804 1347.75 C 574.099 1347.24 574.643 1346.927 575.231 1346.928 L 682.645 1346.928 C 683.553 1346.928 684.289 1347.665 684.289 1348.573 C 684.289 1349.481 683.553 1350.217 682.645 1350.217 L 682.645 1350.217 Z " fill="rgb(204,204,204)"/><path d=" M 682.645 1361.543 L 575.231 1361.543 C 574.323 1361.543 573.587 1360.807 573.587 1359.899 C 573.587 1358.991 574.323 1358.254 575.231 1358.254 L 682.645 1358.254 C 683.553 1358.254 684.289 1358.991 684.289 1359.899 C 684.289 1360.807 683.553 1361.543 682.645 1361.543 L 682.645 1361.543 Z " fill="rgb(204,204,204)"/><path d=" M 529.004 1449.31 C 529.012 1493.233 502.141 1532.686 461.267 1548.764 C 459.7 1549.392 458.104 1549.977 456.502 1550.519 Q 453.816 1551.439 451.072 1552.208 Q 449.166 1552.739 447.224 1553.205 C 427.733 1557.875 407.325 1557.005 388.302 1550.692 C 386.808 1550.194 385.328 1549.66 383.862 1549.104 C 381.891 1548.346 379.942 1547.53 378.028 1546.656 C 377.884 1546.598 377.747 1546.533 377.61 1546.468 C 376.859 1546.122 376.129 1545.775 375.386 1545.407 L 375.379 1545.407 Q 373.852 1544.671 372.353 1543.876 Q 368.91 1542.057 365.617 1539.999 Q 363.906 1538.938 362.246 1537.797 C 326.621 1513.745 308.885 1470.681 317.239 1428.517 C 325.592 1386.352 358.407 1353.303 400.511 1344.65 Q 403.338 1344.065 406.222 1343.639 C 407.428 1343.451 408.648 1343.293 409.868 1343.155 C 410.742 1343.054 411.615 1342.96 412.503 1342.888 L 412.511 1342.888 Q 416.074 1342.563 419.702 1342.484 C 420.034 1342.477 420.366 1342.47 420.705 1342.462 C 420.893 1342.462 421.081 1342.455 421.268 1342.462 L 421.276 1342.462 C 421.564 1342.455 421.853 1342.455 422.149 1342.455 C 423.362 1342.455 424.575 1342.477 425.781 1342.52 Q 429.766 1342.65 433.665 1343.069 C 435.167 1343.228 436.647 1343.423 438.127 1343.639 C 438.293 1343.668 438.466 1343.69 438.632 1343.719 C 439.123 1343.798 439.621 1343.877 440.112 1343.964 C 441.152 1344.13 442.185 1344.325 443.217 1344.534 C 444.184 1344.729 445.145 1344.932 446.105 1345.148 C 449.654 1345.958 453.158 1346.953 456.603 1348.13 C 479.948 1356.111 499.825 1371.905 512.875 1392.843 Q 513.427 1393.72 513.958 1394.619 C 514.232 1395.067 514.492 1395.514 514.752 1395.969 Q 514.893 1396.197 515.012 1396.424 C 515.07 1396.511 515.113 1396.597 515.164 1396.684 C 515.64 1397.514 516.102 1398.359 516.55 1399.204 C 524.753 1414.63 529.03 1431.839 529.004 1449.31 L 529.004 1449.31 Z " fill="rgb(255,255,255)"/><path d=" M 422.161 1556.89 C 410.577 1556.89 399.068 1555.028 388.075 1551.378 C 386.657 1550.905 385.196 1550.382 383.606 1549.779 C 381.6 1549.007 379.624 1548.178 377.728 1547.313 C 377.602 1547.263 377.452 1547.193 377.303 1547.122 C 376.584 1546.79 375.881 1546.457 375.167 1546.104 L 375.065 1546.057 C 374.051 1545.569 373.025 1545.05 372.016 1544.515 C 369.716 1543.3 367.434 1541.986 365.235 1540.612 C 364.09 1539.902 362.946 1539.154 361.837 1538.392 C 325.974 1514.176 308.12 1470.822 316.531 1428.373 C 324.942 1385.925 357.978 1352.654 400.366 1343.943 C 402.256 1343.552 404.191 1343.209 406.117 1342.925 C 407.257 1342.748 408.494 1342.583 409.788 1342.438 C 410.667 1342.336 411.549 1342.242 412.445 1342.169 C 414.824 1341.953 417.26 1341.815 419.686 1341.762 L 420.884 1341.739 C 421.021 1341.737 421.158 1341.736 421.296 1341.741 C 421.553 1341.733 421.847 1341.733 422.149 1341.733 C 423.371 1341.733 424.601 1341.755 425.807 1341.799 C 428.47 1341.886 431.14 1342.071 433.742 1342.351 C 435.12 1342.497 436.589 1342.684 438.231 1342.925 L 438.926 1343.035 C 439.362 1343.105 439.803 1343.176 440.238 1343.253 C 441.174 1343.403 442.17 1343.586 443.36 1343.827 C 444.333 1344.023 445.298 1344.226 446.264 1344.444 C 449.838 1345.26 453.367 1346.262 456.836 1347.447 C 480.327 1355.504 500.331 1371.399 513.488 1392.461 Q 514.043 1393.342 514.58 1394.252 C 514.852 1394.695 515.115 1395.149 515.379 1395.611 C 515.463 1395.747 515.552 1395.902 515.635 1396.058 C 515.675 1396.121 515.711 1396.185 515.746 1396.248 L 515.787 1396.321 C 516.241 1397.111 516.698 1397.942 517.188 1398.866 C 531.553 1425.942 533.691 1457.859 523.064 1486.609 C 512.437 1515.359 490.054 1538.213 461.531 1549.436 C 460.002 1550.049 458.386 1550.644 456.733 1551.203 C 454.942 1551.816 453.102 1552.389 451.267 1552.903 C 449.996 1553.257 448.693 1553.595 447.393 1553.907 C 439.128 1555.888 430.659 1556.889 422.161 1556.89 L 422.161 1556.89 Z  M 375.544 1544.685 L 375.548 1544.685 L 375.706 1544.76 C 376.444 1545.125 377.167 1545.469 377.912 1545.813 C 378.043 1545.875 378.167 1545.934 378.297 1545.986 C 380.197 1546.852 382.146 1547.67 384.121 1548.43 C 385.69 1549.025 387.133 1549.541 388.531 1550.007 C 407.424 1556.282 427.697 1557.147 447.056 1552.502 C 448.339 1552.195 449.626 1551.862 450.879 1551.513 C 452.686 1551.006 454.5 1550.442 456.268 1549.836 C 457.899 1549.285 459.489 1548.699 460.998 1548.094 C 501.709 1532.265 528.46 1492.99 528.282 1449.31 L 528.282 1449.309 C 528.293 1431.958 524.045 1414.869 515.912 1399.543 C 515.43 1398.633 514.981 1397.816 514.537 1397.044 L 514.484 1396.949 C 514.461 1396.908 514.439 1396.866 514.412 1396.825 L 514.372 1396.759 Q 514.265 1396.554 514.138 1396.349 C 513.869 1395.879 513.613 1395.438 513.342 1394.997 C 512.986 1394.393 512.629 1393.807 512.264 1393.228 C 499.283 1372.446 479.547 1356.763 456.369 1348.813 C 452.948 1347.645 449.469 1346.657 445.944 1345.852 C 444.991 1345.637 444.036 1345.436 443.074 1345.242 C 441.903 1345.005 440.926 1344.825 439.999 1344.677 C 439.559 1344.599 439.125 1344.53 438.696 1344.46 L 438.003 1344.351 C 436.399 1344.116 434.949 1343.931 433.589 1343.787 C 431.022 1343.511 428.387 1343.328 425.757 1343.242 C 424.567 1343.199 423.354 1343.177 422.149 1343.177 C 421.856 1343.178 421.576 1343.177 421.293 1343.184 C 421.128 1343.18 421.015 1343.181 420.902 1343.183 L 419.717 1343.206 C 417.325 1343.258 414.922 1343.393 412.576 1343.607 L 412.503 1343.61 C 411.682 1343.679 410.817 1343.772 409.951 1343.872 C 408.675 1344.016 407.459 1344.177 406.333 1344.353 C 404.429 1344.634 402.522 1344.971 400.657 1345.357 C 358.838 1353.951 326.244 1386.777 317.947 1428.656 C 309.65 1470.536 327.266 1513.309 362.65 1537.199 C 363.745 1537.952 364.87 1538.687 365.998 1539.386 C 368.17 1540.743 370.421 1542.039 372.691 1543.238 C 373.636 1543.739 374.595 1544.225 375.544 1544.685 Z " fill="rgb(203,203,203)"/><path d=" M 513.587 1426.107 C 511.225 1429.189 507.62 1431.067 503.741 1431.235 C 499.862 1431.404 496.108 1429.845 493.488 1426.979 L 465.297 1437.181 L 454.918 1421.561 L 494.933 1407.713 C 500.154 1403.54 507.671 1403.932 512.43 1408.625 C 517.189 1413.317 517.686 1420.828 513.587 1426.107 L 513.587 1426.107 Z " fill="rgb(159,97,106)"/><path d=" M 425.495 1427.562 L 483.575 1408.364 L 493.362 1429.728 L 439.213 1446.333 L 425.495 1427.562 L 425.495 1427.562 Z " fill="rgb(204,204,204)"/><path d=" M 447.224 1553.205 C 427.733 1557.875 407.325 1557.005 388.302 1550.692 L 389.602 1538.404 L 390.808 1526.924 L 408.893 1498.961 L 414.691 1490.001 L 438.582 1498.687 L 441.015 1514.029 L 444.892 1538.498 L 447.224 1553.205 Z " fill="rgb(47,46,65)"/><path d=" M 461.267 1548.764 C 459.7 1549.392 458.104 1549.977 456.502 1550.519 Q 453.816 1551.439 451.072 1552.208 Q 449.166 1552.739 447.224 1553.205 C 427.733 1557.875 407.325 1557.005 388.302 1550.692 C 386.808 1550.194 385.328 1549.66 383.862 1549.104 C 384.062 1553.379 383.932 1557.664 383.472 1561.919 C 381.387 1556.932 379.569 1551.837 378.028 1546.656 C 377.92 1546.31 377.819 1545.963 377.718 1545.616 C 377.212 1543.869 376.765 1542.201 376.36 1540.635 C 375.898 1538.823 375.501 1537.14 375.169 1535.602 C 373.848 1529.567 373.429 1525.834 373.429 1525.834 L 387.544 1496.521 L 390.367 1496.846 L 391.537 1496.976 L 398.612 1497.784 L 408.893 1498.961 L 425.55 1500.86 L 441.015 1514.029 L 454.87 1525.834 C 454.87 1525.834 456.025 1529.761 457.837 1536.267 C 458.819 1539.761 459.982 1543.999 461.267 1548.764 Z " fill="rgb(47,46,65)"/><circle vector-effect="non-scaling-stroke" cx="416.51849384816904" cy="1328.802115774238" r="24.974163065313974" fill="rgb(159,97,106)"/><path d=" M 433.903 1381.413 C 433.903 1381.413 427.9 1362.86 413.784 1362.86 C 410.255 1362.86 404.56 1363.152 399.931 1366.173 C 381.292 1378.336 369.953 1399.01 369.084 1421.249 L 364.745 1532.35 C 364.745 1532.35 388.633 1541.037 397.32 1537.779 C 397.32 1537.779 414.693 1512.805 414.693 1512.805 C 414.693 1512.805 412.521 1542.122 421.208 1541.037 C 421.208 1541.037 462.469 1537.779 463.555 1533.436 C 463.555 1533.436 446.932 1435.705 446.932 1435.705 L 433.903 1381.413 Z " fill="rgb(204,204,204)"/><path d=" M 404.377 1336.124 C 406.618 1335.991 408.805 1336.748 411.03 1337.043 C 418.99 1338.1 427.271 1332.324 429.029 1324.488 C 429.17 1323.445 429.481 1322.432 429.949 1321.489 C 431.174 1319.489 433.965 1319.107 436.265 1319.567 C 438.565 1320.027 440.745 1321.104 443.087 1321.227 C 446.704 1321.416 450.176 1319.19 452.103 1316.124 C 454.031 1313.058 454.576 1309.285 454.316 1305.673 L 452.582 1307.492 C 451.878 1306.002 451.606 1304.344 451.797 1302.706 C 449.929 1302.209 447.936 1302.719 446.537 1304.052 C 445.008 1304.215 446.162 1301.217 445.026 1300.181 C 444.474 1299.841 443.815 1299.718 443.177 1299.835 C 439.925 1299.866 437.294 1297.378 434.731 1295.376 C 430.291 1291.914 425.098 1289.545 419.573 1288.461 C 415.9 1287.745 411.995 1287.63 408.512 1288.998 C 405.652 1290.121 403.258 1292.166 401.043 1294.296 C 395.59 1299.539 390.762 1305.7 388.493 1312.916 C 386.649 1318.827 386.597 1325.152 388.343 1331.092 C 389.257 1334.177 392.012 1344.743 396.045 1344.989 C 401.112 1345.298 398.07 1336.501 404.377 1336.124 Z " fill="rgb(47,46,65)"/><g style="opacity:0.1;"><g opacity="0.1"><path d=" M 414.922 1414.294 L 389.349 1451.802 L 381.17 1538.925 L 414.922 1414.294 L 414.922 1414.294 Z " fill="rgb(0,0,0)"/></g></g><path d=" M 521.619 1392.504 C 521.297 1392.275 521.533 1391.393 522.144 1390.536 C 522.756 1389.678 523.513 1389.169 523.835 1389.398 C 524.156 1389.627 523.921 1390.509 523.309 1391.367 C 522.698 1392.224 521.94 1392.733 521.619 1392.504 Z " fill="rgb(63,61,86)"/><path d=" M 489.205 1431.776 L 489.205 1431.776 C 487.704 1430.705 487.355 1428.62 488.426 1427.119 L 488.426 1427.119 L 517.512 1386.352 C 518.583 1384.851 520.668 1384.502 522.169 1385.573 L 522.169 1385.573 L 489.205 1431.776 L 489.205 1431.776 Z " fill="rgb(0,100,255)"/><path d=" M 490.399 1435.85 L 488.716 1434.649 C 488.133 1434.233 487.738 1433.602 487.62 1432.895 C 487.502 1432.189 487.67 1431.464 488.086 1430.88 L 521.203 1384.464 C 521.935 1383.438 523.36 1383.2 524.385 1383.932 L 524.385 1383.932 L 526.411 1385.377 L 526.411 1385.377 L 490.399 1435.85 L 490.399 1435.85 L 490.399 1435.85 Z " fill="rgb(47,46,65)"/><rect x="517.625" y="1390.762" width="3.816" height="0.954" transform="matrix(0.581,-0.814,0.814,0.581,-914.671,1005.86)" fill="rgb(208,205,225)"/><rect x="514.577" y="1395.033" width="3.816" height="0.954" transform="matrix(0.581,-0.814,0.814,0.581,-919.425,1005.168)" fill="rgb(208,205,225)"/><path d=" M 386.975 1567.344 C 389.243 1564.193 389.999 1560.198 389.039 1556.436 C 388.079 1552.674 385.502 1549.53 382.002 1547.851 L 383.621 1517.914 L 365.669 1512.492 L 363.975 1554.801 C 361.489 1561.006 364.036 1568.089 369.904 1571.289 C 375.772 1574.489 383.106 1572.794 386.975 1567.344 L 386.975 1567.344 Z " fill="rgb(159,97,106)"/><path d=" M 386.88 1542.719 L 360.908 1542.719 L 353.761 1462.719 L 353.786 1462.647 L 378.095 1391.254 C 380.429 1384.399 386.434 1379.45 393.609 1378.469 C 400.784 1377.488 407.898 1380.644 411.986 1386.621 C 416.074 1392.599 416.436 1400.372 412.92 1406.703 L 384.317 1458.215 L 386.88 1542.719 Z " fill="rgb(204,204,204)"/><path d=" M 942.706 1195.778 C 942.761 1254.553 895.377 1302.36 836.604 1302.828 C 777.83 1303.295 729.692 1256.248 728.812 1197.479 C 727.933 1138.71 774.642 1090.243 833.403 1088.952 C 833.735 1088.945 834.067 1088.937 834.407 1088.93 C 834.883 1088.923 835.367 1088.923 835.851 1088.923 C 837.064 1088.923 838.277 1088.945 839.482 1088.988 Q 843.468 1089.118 847.367 1089.537 C 848.868 1089.695 850.348 1089.89 851.828 1090.107 C 851.994 1090.136 852.168 1090.157 852.334 1090.186 C 858.442 1091.128 864.455 1092.604 870.304 1094.598 C 913.598 1109.363 942.702 1150.035 942.706 1195.778 Z " fill="rgb(255,255,255)"/><path d=" M 835.751 1303.553 C 776.424 1303.556 728.134 1255.32 728.079 1195.98 C 728.023 1137.395 774.817 1089.517 833.387 1088.23 L 834.391 1088.208 C 836.092 1088.184 837.822 1088.205 839.508 1088.266 C 842.168 1088.353 844.839 1088.539 847.444 1088.819 C 848.823 1088.964 850.292 1089.152 851.933 1089.393 L 852.458 1089.475 C 904.856 1097.611 943.486 1142.752 943.428 1195.778 L 943.428 1195.777 C 943.484 1255.149 895.226 1303.497 835.855 1303.553 L 835.751 1303.553 Z  M 835.839 1089.645 C 835.363 1089.645 834.887 1089.645 834.417 1089.652 L 833.419 1089.674 C 776.076 1090.934 729.468 1138.622 729.523 1195.979 C 729.578 1254.519 777.225 1302.106 835.751 1302.109 L 835.853 1302.109 C 894.429 1302.054 942.039 1254.354 941.984 1195.778 L 941.984 1195.778 C 942.041 1143.459 903.924 1098.921 852.224 1090.9 L 851.705 1090.818 C 850.102 1090.584 848.651 1090.398 847.291 1090.255 C 844.72 1089.978 842.086 1089.795 839.459 1089.709 C 838.268 1089.666 837.055 1089.645 835.851 1089.645 L 835.839 1089.645 Z " fill="rgb(203,203,203)"/><path d=" M 752.094 1201.13 C 751.204 1200.566 750.653 1199.838 750.865 1199.504 C 751.076 1199.171 751.97 1199.357 752.859 1199.921 C 753.749 1200.484 754.299 1201.212 754.088 1201.546 C 753.877 1201.879 752.983 1201.693 752.094 1201.13 Z " fill="rgb(63,61,86)"/><path d=" M 750.965 1195.334 L 750.965 1195.334 C 751.439 1194.586 752.19 1194.057 753.054 1193.863 C 753.918 1193.669 754.824 1193.826 755.572 1194.3 L 755.572 1194.3 L 797.882 1221.092 C 798.63 1221.566 799.159 1222.317 799.353 1223.181 C 799.547 1224.045 799.39 1224.951 798.916 1225.699 L 798.916 1225.699 L 750.965 1195.334 L 750.965 1195.334 Z " fill="rgb(0,100,255)"/><path d=" M 746.963 1196.751 L 748.294 1194.649 C 748.968 1193.585 750.377 1193.268 751.442 1193.942 L 751.442 1193.942 L 799.615 1224.448 C 800.22 1224.831 800.649 1225.44 800.806 1226.139 C 800.963 1226.838 800.836 1227.571 800.452 1228.176 L 799.346 1229.923 L 799.346 1229.923 L 746.963 1196.751 L 746.963 1196.751 Z " fill="rgb(47,46,65)"/><rect x="755.167" y="1197.307" width="0.954" height="3.816" transform="matrix(0.535,-0.845,0.845,0.535,-661.785,1196.155)" fill="rgb(208,205,225)"/><rect x="759.6" y="1200.114" width="0.954" height="3.816" transform="matrix(0.535,-0.845,0.845,0.535,-662.095,1201.206)" fill="rgb(208,205,225)"/><circle vector-effect="non-scaling-stroke" cx="836.1364860909522" cy="1069.8501396576053" r="30.072322861863427" fill="rgb(255,184,184)"/><path d=" M 864.774 1298.676 C 840.376 1305.49 814.355 1303.457 791.311 1292.936 L 793.621 1231.206 L 793.795 1226.405 L 793.86 1224.845 L 793.939 1222.549 L 793.997 1221.084 C 793.997 1221.084 794.091 1221.076 794.271 1221.069 C 794.762 1221.033 795.896 1220.954 797.52 1220.86 C 799.405 1220.751 801.939 1220.614 804.892 1220.491 C 805.592 1220.463 806.314 1220.434 807.058 1220.398 C 822.609 1219.82 846.897 1219.697 850.11 1224.383 L 850.514 1227.141 L 851.164 1231.596 L 852.493 1240.7 C 852.493 1240.7 867.597 1270.735 864.774 1298.676 Z " fill="rgb(47,46,65)"/><path d=" M 872.408 1142.984 L 866.485 1197.696 L 855.204 1222.649 L 851.024 1231.902 L 790.512 1231.168 L 796.747 1188.994 C 787.945 1166.256 808.849 1157.088 808.849 1157.088 L 830.533 1112.66 C 830.533 1112.66 836.309 1109.772 851.39 1109.045 C 865.411 1108.369 854.358 1110.494 854.358 1110.494 C 872.695 1108.66 872.408 1142.984 872.408 1142.984 Z " fill="rgb(204,204,204)"/><g style="opacity:0.2;"><g opacity="0.2"><path d=" M 854.211 1200.584 L 842.931 1225.537 C 839.307 1218.76 836.549 1211.084 836.549 1206.551 C 836.549 1194.082 849.018 1200.683 849.018 1200.683 C 849.018 1200.683 838.933 1145.489 838.933 1128.986 C 838.933 1118.025 848.072 1166.672 854.211 1200.584 Z " fill="rgb(0,0,0)"/></g></g><path d=" M 870.794 1051.529 C 868.838 1046.755 865.812 1042.494 861.949 1039.073 C 863.533 1038.542 864.855 1037.428 865.648 1035.957 C 866.805 1033.666 866.192 1030.792 864.618 1028.742 C 863.184 1027.009 861.328 1025.674 859.23 1024.864 C 860.767 1025.563 862.449 1025.887 864.136 1025.808 C 866.182 1025.595 868.226 1023.99 868.105 1021.998 C 867.989 1020.101 866.123 1018.818 864.448 1017.828 Q 862.818 1016.865 861.188 1015.901 C 861.51 1015.277 861.794 1014.634 862.037 1013.975 C 863.952 1009.08 862.821 1003.518 859.146 999.76 C 862.705 1003.383 861.796 1008.99 858.28 1013.54 C 858.167 1013.686 858.045 1013.829 857.927 1013.974 Q 856.882 1013.356 855.837 1012.739 C 854.1 1011.712 852.294 1010.661 850.276 1010.419 C 848.258 1010.176 845.959 1010.975 845.135 1012.775 C 844.253 1014.702 845.256 1017.161 844.107 1018.95 C 843.101 1020.516 840.906 1020.849 839.003 1020.775 C 837.1 1020.701 835.078 1020.4 833.385 1021.242 C 831.031 1022.412 830.259 1025.576 831.306 1027.935 C 831.771 1028.94 832.465 1029.823 833.331 1030.512 C 828.295 1031.215 823.334 1032.711 818.459 1034.232 C 812.711 1036.026 806.855 1037.931 802.051 1041.561 C 797.247 1045.192 793.608 1050.923 794.065 1056.927 C 794.523 1062.931 800.488 1072.388 806.433 1071.428 L 807.338 1068.595 C 814.707 1065.092 823.488 1066.653 829.198 1072.482 C 829.267 1068.701 835.021 1067.445 837.888 1069.91 C 840.755 1072.375 841.308 1076.542 841.531 1080.316 C 841.753 1084.09 841.964 1088.2 844.45 1091.048 C 846.836 1093.782 850.901 1094.63 854.437 1093.815 C 857.973 1093.001 861.03 1090.758 863.562 1088.159 C 872.75 1078.729 875.708 1063.743 870.794 1051.529 Z " fill="rgb(47,46,65)"/><path d=" M 774.877 1227.556 C 778.029 1229.824 782.023 1230.58 785.785 1229.62 C 789.547 1228.66 792.691 1226.083 794.37 1222.582 L 876.291 1224.202 L 881.712 1206.249 L 787.42 1204.555 C 781.216 1202.069 774.133 1204.617 770.933 1210.485 C 767.733 1216.352 769.427 1223.686 774.877 1227.556 L 774.877 1227.556 Z " fill="rgb(255,184,184)"/><path d=" M 854.519 1107.532 C 854.519 1107.532 835.449 1108.999 835.449 1125.502 C 835.449 1125.502 852.686 1200.683 852.686 1200.683 C 852.686 1200.683 840.217 1194.082 840.217 1206.551 C 840.217 1206.551 861.121 1255.327 863.321 1231.122 C 863.321 1231.122 894.86 1246.525 893.027 1217.553 C 891.193 1188.581 871.389 1127.336 871.389 1127.336 C 871.389 1127.336 869.189 1106.432 854.519 1107.532 Z " fill="rgb(204,204,204)"/></g><g><path d=" M 264.453 516.963 L 261.539 516.963 L 261.539 437.133 C 261.539 411.615 240.853 390.929 215.336 390.929 L 46.204 390.929 C 33.95 390.929 22.198 395.797 13.533 404.462 C 4.868 413.126 0 424.879 0 437.133 L 0 875.089 C 0 900.607 20.686 921.293 46.204 921.293 L 215.335 921.293 C 227.589 921.293 239.342 916.425 248.006 907.76 C 256.671 899.095 261.539 887.343 261.539 875.089 L 261.539 573.788 L 264.453 573.788 L 264.453 516.963 Z " fill="rgb(63,61,86)"/><path d=" M 217.2 402.949 L 195.123 402.949 C 197.184 408.004 196.594 413.754 193.549 418.284 C 190.505 422.815 185.404 425.533 179.945 425.534 L 83.051 425.534 C 77.592 425.533 72.492 422.815 69.447 418.285 C 66.402 413.754 65.812 408.004 67.874 402.949 L 47.254 402.949 C 28.197 402.949 12.749 418.398 12.749 437.454 L 12.749 874.768 C 12.749 883.919 16.384 892.695 22.855 899.166 C 29.326 905.637 38.102 909.272 47.253 909.272 L 217.2 909.272 C 226.351 909.272 235.127 905.637 241.598 899.166 C 248.069 892.695 251.704 883.919 251.704 874.768 L 251.704 874.768 L 251.704 437.454 C 251.704 428.303 248.069 419.526 241.598 413.056 C 235.127 406.585 226.351 402.949 217.2 402.949 L 217.2 402.949 Z " fill="rgb(255,255,255)"/><path d=" M 210.684 586.532 L 53.769 586.532 C 51.585 586.53 49.815 584.76 49.813 582.577 L 49.813 490.273 C 49.815 488.09 51.585 486.32 53.769 486.317 L 210.684 486.317 C 212.868 486.32 214.638 488.09 214.64 490.273 L 214.64 582.577 C 214.638 584.76 212.868 586.53 210.684 586.532 L 210.684 586.532 Z " fill="rgb(255,255,255)"/><path d=" M 158.283 535.596 C 156.669 533.868 154.423 532.869 152.06 532.827 C 149.696 532.785 147.417 533.703 145.742 535.372 L 101.582 579.532 C 99.153 581.956 95.223 581.961 92.787 579.546 L 86.247 573.018 C 84.614 571.385 82.398 570.467 80.088 570.467 C 77.779 570.467 75.563 571.385 73.93 573.018 L 61.272 585.69 L 203.181 585.69 L 203.181 583.884 L 158.283 535.596 Z " fill="rgb(0,100,255)"/><path d=" M 210.684 587.879 L 53.769 587.879 C 50.842 587.875 48.47 585.503 48.467 582.576 L 48.467 490.274 C 48.47 487.347 50.842 484.975 53.769 484.971 L 210.684 484.971 C 213.611 484.975 215.983 487.347 215.986 490.274 L 215.986 582.576 C 215.983 585.503 213.611 587.875 210.684 587.879 L 210.684 587.879 Z  M 53.769 487.664 C 52.328 487.665 51.161 488.833 51.159 490.274 L 51.159 582.576 C 51.161 584.017 52.328 585.185 53.769 585.186 L 210.684 585.186 C 212.125 585.185 213.292 584.017 213.294 582.576 L 213.294 490.274 C 213.292 488.833 212.125 487.665 210.684 487.664 L 53.769 487.664 Z " fill="rgb(203,203,203)"/><path d=" M 201.025 869.116 C 193.129 869.116 186.011 864.36 182.99 857.065 C 179.969 849.771 181.639 841.375 187.222 835.792 C 192.804 830.209 201.2 828.539 208.495 831.561 C 215.789 834.582 220.545 841.7 220.545 849.595 C 220.533 860.371 211.8 869.103 201.025 869.116 L 201.025 869.116 Z  M 201.025 831.576 C 191.073 831.576 183.006 839.644 183.006 849.595 C 183.006 859.547 191.073 867.614 201.025 867.614 C 210.976 867.614 219.044 859.547 219.044 849.595 C 219.032 839.648 210.971 831.588 201.025 831.576 L 201.025 831.576 Z " fill="rgb(203,203,203)"/><path d=" M 192.593 856.167 C 192.311 856.168 192.063 855.978 191.99 855.705 C 191.916 855.432 192.036 855.144 192.28 855.002 L 201.646 849.595 L 192.28 844.188 C 191.982 844.016 191.879 843.634 192.052 843.335 C 192.224 843.036 192.606 842.934 192.905 843.106 L 203.207 849.054 C 203.4 849.166 203.519 849.372 203.519 849.595 C 203.519 849.818 203.4 850.024 203.207 850.136 L 192.905 856.084 C 192.81 856.139 192.703 856.167 192.593 856.167 Z " fill="rgb(203,203,203)"/><path d=" M 206.407 858.336 C 206.062 858.336 205.782 858.057 205.782 857.712 L 205.782 841.479 C 205.783 841.135 206.063 840.857 206.407 840.857 C 206.75 840.857 207.03 841.135 207.031 841.479 L 207.031 857.712 C 207.031 858.057 206.751 858.336 206.407 858.336 L 206.407 858.336 Z " fill="rgb(203,203,203)"/><path d=" M 92.16 625.846 C 90.541 625.846 89.228 627.159 89.228 628.779 C 89.228 630.398 90.541 631.711 92.16 631.711 L 172.293 631.711 C 173.913 631.711 175.226 630.398 175.226 628.779 C 175.226 627.159 173.913 625.846 172.293 625.846 L 92.16 625.846 Z " fill="rgb(204,204,204)"/><path d=" M 46.841 666.229 C 45.221 666.229 43.908 667.542 43.908 669.162 C 43.908 670.782 45.221 672.095 46.841 672.095 L 217.612 672.095 C 219.232 672.095 220.545 670.782 220.545 669.162 C 220.545 667.542 219.232 666.229 217.612 666.229 L 46.841 666.229 Z " fill="rgb(204,204,204)"/><path d=" M 46.841 689.562 C 45.221 689.562 43.908 690.875 43.908 692.495 C 43.908 694.115 45.221 695.428 46.841 695.428 L 217.612 695.428 C 219.232 695.428 220.545 694.115 220.545 692.495 C 220.545 690.875 219.232 689.562 217.612 689.562 L 46.841 689.562 Z " fill="rgb(204,204,204)"/><path d=" M 46.841 712.895 C 45.221 712.895 43.908 714.208 43.908 715.828 C 43.908 717.447 45.221 718.76 46.841 718.76 L 217.612 718.76 C 219.232 718.76 220.545 717.447 220.545 715.828 C 220.545 714.208 219.232 712.895 217.612 712.895 L 46.841 712.895 Z " fill="rgb(204,204,204)"/><path d=" M 46.841 736.228 C 45.221 736.228 43.908 737.541 43.908 739.16 C 43.908 740.78 45.221 742.093 46.841 742.093 L 217.612 742.093 C 219.232 742.093 220.545 740.78 220.545 739.16 C 220.545 737.541 219.232 736.228 217.612 736.228 L 46.841 736.228 Z " fill="rgb(204,204,204)"/><path d=" M 46.841 759.56 C 45.793 759.56 44.825 760.119 44.301 761.027 C 43.777 761.934 43.777 763.052 44.301 763.959 C 44.825 764.867 45.793 765.426 46.841 765.426 L 217.612 765.426 C 219.232 765.426 220.545 764.113 220.545 762.493 C 220.545 760.873 219.232 759.56 217.612 759.56 L 46.841 759.56 Z " fill="rgb(204,204,204)"/><path d=" M 46.841 782.893 C 45.793 782.893 44.825 783.452 44.301 784.359 C 43.777 785.267 43.777 786.385 44.301 787.292 C 44.825 788.2 45.793 788.759 46.841 788.759 L 217.612 788.759 C 219.232 788.759 220.545 787.446 220.545 785.826 C 220.545 784.206 219.232 782.893 217.612 782.893 L 46.841 782.893 Z " fill="rgb(204,204,204)"/><path d=" M 461.521 809.16 C 463.368 807.613 464.435 805.326 464.435 802.917 C 464.434 800.507 463.367 798.221 461.519 796.674 L 455.465 690.135 L 438.193 694.04 L 449.612 798.09 C 447.165 801.44 447.611 806.09 450.649 808.914 C 453.687 811.739 458.358 811.844 461.521 809.16 L 461.521 809.16 Z " fill="rgb(159,97,106)"/><path d=" M 531.655 823.033 C 529.753 821.553 528.604 819.307 528.517 816.899 C 528.43 814.491 529.414 812.168 531.205 810.555 L 533.397 703.867 L 550.799 707.144 L 543.155 811.539 C 545.722 814.798 545.445 819.462 542.511 822.394 C 539.576 825.327 534.913 825.601 531.655 823.033 L 531.655 823.033 Z " fill="rgb(159,97,106)"/><path d=" M 540.864 981.593 L 554.414 981.592 L 558.28 949.978 L 540.861 949.979 L 540.864 981.593 L 540.864 981.593 Z " fill="rgb(159,97,106)"/><path d=" M 537.407 977.168 L 564.094 977.167 L 564.095 977.167 C 573.488 977.167 581.102 984.781 581.103 994.174 L 581.103 994.727 L 537.407 994.728 L 537.407 977.168 Z " fill="rgb(47,46,65)"/><path d=" M 456.303 981.593 L 469.854 981.592 L 473.719 929.322 L 456.3 929.324 L 456.303 981.593 L 456.303 981.593 Z " fill="rgb(159,97,106)"/><path d=" M 452.846 977.168 L 479.534 977.167 L 479.535 977.167 C 488.927 977.167 496.542 984.781 496.542 994.174 L 496.542 994.727 L 452.847 994.728 L 452.846 977.168 Z " fill="rgb(47,46,65)"/><circle vector-effect="non-scaling-stroke" cx="511.97164065397465" cy="627.4038474011008" r="22.170170735586566" fill="rgb(159,97,106)"/><path d=" M 539.069 673.161 C 539.069 673.161 548.922 673.982 549.743 678.909 C 549.743 678.909 549.743 698.616 549.743 698.616 C 549.743 698.616 556.312 718.322 549.743 723.249 C 549.743 723.249 525.931 728.997 525.931 728.997 L 539.069 673.161 Z " fill="rgb(0,100,255)"/><path d=" M 455.314 784.833 L 446.282 799.613 C 446.282 799.613 449.567 864.481 450.388 866.124 C 451.04 867.087 451.331 868.251 451.209 869.408 L 451.209 878.44 L 453.672 957.268 C 453.672 957.268 447.103 960.552 455.315 963.016 C 455.315 963.016 474.2 966.3 475.842 958.089 C 475.842 958.089 477.563 881.471 477.485 879.262 L 478.306 875.977 L 491.444 827.531 L 521.825 894.863 L 539.89 970.406 C 539.89 970.406 567.23 973.563 562.303 962.888 C 562.303 962.888 545.638 872.693 545.638 872.693 C 545.638 872.693 543.174 864.481 543.174 862.839 C 543.174 862.839 542.353 860.376 542.353 858.734 C 542.353 858.734 541.532 852.165 541.532 852.165 L 535.784 800.434 L 455.314 784.833 Z " fill="rgb(47,46,65)"/><path d=" M 489.801 653.091 C 489.801 653.091 490.294 654.316 526.791 658.863 C 526.791 658.863 547.28 672.34 548.101 675.624 C 548.922 678.909 532.5 720.786 532.5 720.786 L 530.857 752.809 C 530.857 752.809 539.065 766.656 534.963 809.466 C 522.132 810.179 470.179 793.288 457.367 786.065 C 455.421 784.967 450.884 789.805 451.209 788.939 C 453.672 782.37 451.209 783.191 453.672 781.549 C 456.136 779.906 460.241 722.428 460.241 722.428 C 460.241 722.428 455.314 660.023 461.062 658.381 C 466.81 656.739 489.801 653.091 489.801 653.091 Z " fill="rgb(0,100,255)"/><path d=" M 463.526 659.202 C 463.526 659.202 453.672 658.381 451.209 666.592 C 451.209 666.592 428.218 706.006 432.323 709.29 C 432.323 709.29 467.631 724.07 468.452 723.249 C 469.274 722.428 463.526 659.202 463.526 659.202 Z " fill="rgb(0,100,255)"/><path d=" M 537.789 613.266 C 536.859 609.802 535.547 606.34 532.876 603.948 C 530.169 601.541 526.695 600.173 523.074 600.088 C 514.695 595.231 504.504 594.653 495.629 598.531 C 495.156 597.575 494.39 596.794 493.443 596.303 Q 493.048 599.723 492.652 603.143 Q 491.124 601.993 489.597 600.844 Q 489.521 602.868 489.446 604.892 Q 488.046 603.688 486.646 602.485 C 486.447 607.263 490.424 611.401 494.921 613.03 C 499.418 614.659 504.349 614.359 509.126 614.133 C 511.485 614.021 514.173 614.062 515.765 615.806 C 517.433 617.634 517.119 620.435 517.16 622.909 C 517.217 626.389 520.789 624.684 522.581 627.668 C 523.223 628.738 523.994 629.838 523.971 631.085 C 523.801 632.216 523.392 633.297 522.769 634.255 C 521.45 636.979 518.827 645.454 520.079 648.21 Q 523.555 646.265 527.031 644.319 C 530.506 642.374 542.292 630.031 537.789 613.266 Z " fill="rgb(47,46,65)"/><path d=" M 628.054 995.333 L 352.549 995.333 C 352.053 995.333 351.651 994.931 351.651 994.435 C 351.651 993.94 352.053 993.538 352.549 993.538 L 628.054 993.538 C 628.55 993.538 628.952 993.94 628.952 994.435 C 628.952 994.931 628.55 995.333 628.054 995.333 Z " fill="rgb(203,203,203)"/><path d=" M 395.985 993.896 C 395.985 993.896 382.581 969.155 350.165 979.853 L 395.985 993.896 Z " fill="rgb(241,241,241)"/><path d=" M 396.793 993.292 C 396.793 993.292 380.216 972.221 404.143 945.934 L 396.793 993.292 Z " fill="rgb(241,241,241)"/></g></g></g></svg>