<?xml version="1.0" encoding="UTF-8" standalone="no"?><!-- Generator: Gravit.io --><svg xmlns="http://www.w3.org/2000/svg" xmlns:xlink="http://www.w3.org/1999/xlink" style="isolation:isolate" viewBox="0 0 78.275 60" width="78.275pt" height="60pt"><defs><clipPath id="_clipPath_DwfcYsggeelnvqlrYnexGojA0GbiGfxC"><rect width="78.275" height="60"/></clipPath></defs><g clip-path="url(#_clipPath_DwfcYsggeelnvqlrYnexGojA0GbiGfxC)"><g><g><defs><linearGradient id="_lgradient_0" x1="0.5" y1="0" x2="0.49999999999999983" y2="1"><stop offset="0%" style="stop-color:#004DD1"/><stop offset="100%" style="stop-color:#0090D9"/></linearGradient></defs><path d="M 20.291 0.722 L 20.554 0.818 C 23.187 1.777 24.452 4.656 23.377 7.244 L 10.189 38.976 C 9.113 41.563 6.102 42.886 3.469 41.928 L 3.206 41.832 C 0.573 40.873 -0.692 37.994 0.383 35.406 L 13.571 3.674 C 14.647 1.087 17.658 -0.236 20.291 0.722 Z" style="stroke:none;fill:url(#_lgradient_0);stroke-miterlimit:10;"/><path d="M 33.531 41.928 L 33.794 41.832 C 36.427 40.873 37.692 37.994 36.617 35.406 L 23.429 3.674 C 22.353 1.087 19.342 -0.236 16.709 0.722 L 16.446 0.818 C 13.813 1.777 12.548 4.656 13.623 7.244 L 26.811 38.976 C 27.887 41.563 30.898 42.886 33.531 41.928 Z" style="stroke:none;fill:#0090D9;stroke-miterlimit:10;"/></g><g><linearGradient id="_lgradient_1" x1="0.5" y1="1" x2="0.5000000000000001" y2="0"><stop offset="0%" stop-opacity="1" style="stop-color:rgb(0,144,217)"/><stop offset="100%" stop-opacity="1" style="stop-color:rgb(0,77,209)"/></linearGradient><path d=" M 74.025 24.363 C 72.58 32.314 65.615 38.35 57.25 38.35 C 47.84 38.35 40.2 30.71 40.2 21.3 C 40.2 11.89 47.84 4.25 57.25 4.25 C 60.387 4.25 63.327 5.099 65.853 6.579" fill="none" vector-effect="non-scaling-stroke" stroke-width="8.5" stroke="url(#_lgradient_1)" stroke-linejoin="miter" stroke-linecap="round" stroke-miterlimit="3"/><path d="M 57.192 20.11 L 74.208 20.11 C 76.411 20.11 78.2 21.899 78.2 24.102 L 78.2 24.618 C 78.2 26.821 76.411 28.61 74.208 28.61 L 57.192 28.61 C 54.989 28.61 53.2 26.821 53.2 24.618 L 53.2 24.102 C 53.2 21.899 54.989 20.11 57.192 20.11 Z" style="stroke:none;fill:#0090D9;stroke-miterlimit:10;"/></g></g><g clip-path="url(#_clipPath_WUBbdryMs3YiorXPHLh6gxHnsQnjBBhO)"><text transform="matrix(1,0,0,1,0,56.64)" style="font-family:'Nova Round';font-weight:400;font-size:15px;font-style:normal;fill:#0064ff;stroke:none;">ArticleGuru</text></g><defs><clipPath id="_clipPath_WUBbdryMs3YiorXPHLh6gxHnsQnjBBhO"><rect x="0" y="0" width="81" height="18.105" transform="matrix(1,0,0,1,0,42.24)"/></clipPath></defs></g></svg>