<?xml version="1.0" encoding="UTF-8" standalone="no"?><!-- Generator: Gravit.io --><svg xmlns="http://www.w3.org/2000/svg" xmlns:xlink="http://www.w3.org/1999/xlink" style="isolation:isolate" viewBox="0 0 200 200" width="200pt" height="200pt"><defs><clipPath id="_clipPath_bR5kJcnpUU08FpehiDokuJZ8MiLPPkO0"><rect width="200" height="200"/></clipPath></defs><g clip-path="url(#_clipPath_bR5kJcnpUU08FpehiDokuJZ8MiLPPkO0)"><path d=" M 0 100 C 0 44.808 44.808 0 100 0 C 155.191 0 200 44.808 200 100 C 200 155.191 155.191 200 100 200 C 44.808 200 0 155.191 0 100 Z " fill="rgb(0,100,255)"/><g><g><circle vector-effect="non-scaling-stroke" cx="139.71731104175228" cy="82.64751698744962" r="3.5999999999998806" fill="rgb(239,150,126)"/><circle vector-effect="non-scaling-stroke" cx="139.71731104175225" cy="82.64751698744986" r="1.799999999999926" fill="rgb(232,104,94)"/><circle vector-effect="non-scaling-stroke" cx="139.71731104175" cy="82.64751698744966" r="1" fill="rgb(221,79,79)"/></g><g><circle vector-effect="non-scaling-stroke" cx="94.51731104175413" cy="82.64751698744972" r="3.599999999999852" fill="rgb(239,150,126)"/><circle vector-effect="non-scaling-stroke" cx="94.51731104175403" cy="82.64751698744972" r="1.799999999999926" fill="rgb(232,104,94)"/><circle vector-effect="non-scaling-stroke" cx="94.51731104175403" cy="82.64751698744972" r="1" fill="rgb(221,79,79)"/></g></g><path d="M 107.035 111.65 L 126.405 111.65 C 134.968 111.65 141.92 118.602 141.92 127.165 L 141.92 164.85 L 91.52 164.85 C 91.52 164.85 91.52 164.85 91.52 164.85 L 91.52 127.165 C 91.52 118.602 98.472 111.65 107.035 111.65 Z" style="stroke:none;fill:#050917;stroke-miterlimit:10;"/><path d="M 135 119.05 L 135 119.05 C 135.828 119.05 136.5 119.722 136.5 120.55 L 136.5 139.15 C 136.5 139.978 135.828 140.65 135 140.65 L 135 140.65 C 134.172 140.65 133.5 139.978 133.5 139.15 L 133.5 120.55 C 133.5 119.722 134.172 119.05 135 119.05 Z" style="stroke:none;fill:#162046;stroke-miterlimit:10;"/><path d="M 116.72 105.95 L 116.72 105.95 C 123.343 105.95 128.72 111.327 128.72 117.95 L 128.72 120.15 C 128.72 126.773 123.343 132.15 116.72 132.15 L 116.72 132.15 C 110.097 132.15 104.72 126.773 104.72 120.15 L 104.72 117.95 C 104.72 111.327 110.097 105.95 116.72 105.95 Z" style="stroke:none;fill:#EE947E;stroke-miterlimit:10;"/><path d="M 116.72 105.95 L 116.72 105.95 C 123.343 105.95 128.72 111.327 128.72 117.95 L 128.72 120.15 C 128.72 126.773 123.343 132.15 116.72 132.15 L 116.72 132.15 C 110.097 132.15 104.72 126.773 104.72 120.15 L 104.72 117.95 C 104.72 111.327 110.097 105.95 116.72 105.95 Z" style="fill:none;stroke:#000000;stroke-width:6;stroke-linecap:square;stroke-miterlimit:2;"/><path d="M 95.72 63.05 L 137.72 63.05 L 137.72 97.719 C 137.72 109.492 128.31 119.05 116.72 119.05 L 116.72 119.05 C 105.13 119.05 95.72 109.492 95.72 97.719 L 95.72 63.05 Z" style="stroke:none;fill:#F9C29E;stroke-miterlimit:10;"/><path d="M 106.866 41.15 L 153.48 41.15 C 153.48 41.15 153.48 41.15 153.48 41.15 L 153.48 53.054 C 153.48 59.206 148.486 64.2 142.334 64.2 L 95.72 64.2 C 95.72 64.2 95.72 64.2 95.72 64.2 L 95.72 52.296 C 95.72 46.144 100.714 41.15 106.866 41.15 Z" style="stroke:none;fill:#050917;stroke-miterlimit:10;"/><path d=" M 153.483 41.152 L 153.483 41.152 L 153.483 49.058 L 153.483 53.058 C 153.483 59.21 148.488 64.204 142.336 64.204 L 95.717 64.204 C 95.717 64.204 95.717 64.204 95.717 64.204 L 95.717 52.299 L 95.717 52.299 L 95.717 60.204 C 95.717 60.204 95.717 60.204 95.717 60.204 L 142.336 60.204 C 148.488 60.204 153.483 55.21 153.483 49.058 L 153.483 49.058 L 153.483 41.152 Z " fill-rule="evenodd" fill="rgb(2,3,6)"/><g><defs><linearGradient id="_lgradient_0" x1="0" y1="0.5" x2="1" y2="0.5"><stop offset="2.9166666666666665%" style="stop-color:#051317"/><stop offset="100%" style="stop-color:#0C3542"/></linearGradient></defs><path d="M 100.106 74.25 L 106.134 74.25 C 106.899 74.25 107.52 74.871 107.52 75.636 L 107.52 76.064 C 107.52 76.829 106.899 77.45 106.134 77.45 L 100.106 77.45 C 99.341 77.45 98.72 76.829 98.72 76.064 L 98.72 75.636 C 98.72 74.871 99.341 74.25 100.106 74.25 Z" style="stroke:none;fill:url(#_lgradient_0);stroke-miterlimit:10;"/><defs><linearGradient id="_lgradient_1" x1="0" y1="0.5" x2="1" y2="0.5"><stop offset="2.9166666666666665%" style="stop-color:#051317"/><stop offset="100%" style="stop-color:#0C3542"/></linearGradient></defs><path d="M 127.306 74.25 L 133.334 74.25 C 134.099 74.25 134.72 74.871 134.72 75.636 L 134.72 76.064 C 134.72 76.829 134.099 77.45 133.334 77.45 L 127.306 77.45 C 126.541 77.45 125.92 76.829 125.92 76.064 L 125.92 75.636 C 125.92 74.871 126.541 74.25 127.306 74.25 Z" style="stroke:none;fill:url(#_lgradient_1);stroke-miterlimit:10;"/></g><path d=" M 127.517 98.248 L 127.517 99.448 C 127.517 105.408 122.678 110.248 116.717 110.248 L 116.717 110.248 C 110.757 110.248 105.917 105.408 105.917 99.448 L 105.917 98.248 L 127.517 98.248 L 127.517 98.248 Z " fill="rgb(149,20,67)"/><path d=" M 126.387 104.257 C 124.618 107.807 120.95 110.248 116.717 110.248 L 116.717 107.248 C 116.717 105.592 118.062 104.248 119.717 104.248 L 126.117 104.248 C 126.208 104.248 126.297 104.252 126.387 104.257 Z " fill-rule="evenodd" fill="rgb(228,35,90)"/><path d="M 107.12 98.25 L 126.32 98.25 L 126.32 100.461 C 126.32 101.448 125.518 102.25 124.531 102.25 L 108.909 102.25 C 107.922 102.25 107.12 101.448 107.12 100.461 L 107.12 98.25 Z" style="stroke:none;fill:#FFFFFF;stroke-miterlimit:10;"/><g><path d="M 102.72 79.05 L 102.72 79.05 C 103.603 79.05 104.32 79.767 104.32 80.65 L 104.32 82.25 C 104.32 83.133 103.603 83.85 102.72 83.85 L 102.72 83.85 C 101.837 83.85 101.12 83.133 101.12 82.25 L 101.12 80.65 C 101.12 79.767 101.837 79.05 102.72 79.05 Z" style="stroke:none;fill:#072128;stroke-miterlimit:10;"/><path d="M 130.72 79.05 L 130.72 79.05 C 131.603 79.05 132.32 79.767 132.32 80.65 L 132.32 82.25 C 132.32 83.133 131.603 83.85 130.72 83.85 L 130.72 83.85 C 129.837 83.85 129.12 83.133 129.12 82.25 L 129.12 80.65 C 129.12 79.767 129.837 79.05 130.72 79.05 Z" style="stroke:none;fill:#072128;stroke-miterlimit:10;"/></g><path d=" M 120.217 86.148 L 120.217 86.148 L 120.217 89.4 L 120.217 91.048 C 120.217 92.979 118.649 94.548 116.717 94.548 L 116.717 94.548 C 114.786 94.548 113.217 92.979 113.217 91.048 L 113.217 89.4 C 113.217 91.332 114.786 92.9 116.717 92.9 L 116.717 92.9 C 118.649 92.9 120.217 91.332 120.217 89.4 L 120.217 89.4 L 120.217 86.148 Z " fill-rule="evenodd" fill="rgb(241,147,124)"/><g><path d="M 105.92 119.05 L 105.92 119.05 C 106.582 119.05 107.12 119.735 107.12 120.58 L 107.12 138.32 C 107.12 139.165 106.582 139.85 105.92 139.85 L 105.92 139.85 C 105.258 139.85 104.72 139.165 104.72 138.32 L 104.72 120.58 C 104.72 119.735 105.258 119.05 105.92 119.05 Z" style="stroke:none;fill:#FFFFFF;stroke-miterlimit:10;"/><path d="M 127.59 119.85 L 127.59 119.85 C 128.252 119.85 128.79 120.535 128.79 121.38 L 128.79 139.12 C 128.79 139.965 128.252 140.65 127.59 140.65 L 127.59 140.65 C 126.928 140.65 126.39 139.965 126.39 139.12 L 126.39 121.38 C 126.39 120.535 126.928 119.85 127.59 119.85 Z" style="stroke:none;fill:#FFFFFF;stroke-miterlimit:10;"/></g><g><circle vector-effect="non-scaling-stroke" cx="116.71731104175322" cy="139.4475169874497" r="1.9999999999999147" fill="rgb(255,255,255)"/><circle vector-effect="non-scaling-stroke" cx="116.71731104175322" cy="148.2475169874495" r="1.9999999999999147" fill="rgb(255,255,255)"/><circle vector-effect="non-scaling-stroke" cx="116.71731104175322" cy="157.04751698744948" r="1.9999999999999147" fill="rgb(255,255,255)"/></g><path d="M 52.26 123.85 L 100.18 123.85 C 103.348 123.85 105.92 126.422 105.92 129.59 L 105.92 159.11 C 105.92 162.278 103.348 164.85 100.18 164.85 L 52.26 164.85 C 49.092 164.85 46.52 162.278 46.52 159.11 L 46.52 129.59 C 46.52 126.422 49.092 123.85 52.26 123.85 Z" style="stroke:none;fill:#EBEBEB;stroke-miterlimit:10;"/><g><g><path d=" M 78.465 138.995 C 79.043 138.376 79.435 137.516 79.328 136.658 C 78.494 136.688 77.484 137.147 76.885 137.767 C 76.349 138.315 75.879 139.192 76.004 140.033 C 76.935 140.095 77.885 139.614 78.465 138.995 Z  M 80.24 144.919 C 80.222 142.996 81.763 142.072 81.831 142.027 C 80.965 140.722 79.616 140.543 79.136 140.523 C 77.988 140.402 76.897 141.218 76.314 141.218 C 75.734 141.218 74.836 140.539 73.883 140.557 C 72.631 140.578 71.478 141.307 70.835 142.462 C 69.534 144.786 70.502 148.23 71.769 150.115 C 72.388 151.038 73.126 152.074 74.095 152.036 C 75.03 151.999 75.382 151.414 76.51 151.414 C 77.639 151.414 77.955 152.036 78.942 152.017 C 79.947 151.999 80.583 151.077 81.197 150.151 C 81.908 149.08 82.201 148.044 82.217 147.992 C 82.196 147.979 80.261 147.218 80.24 144.919 Z " fill="rgb(204,208,210)"/></g></g><g><path d="M 110.767 47 L 145.233 47 C 146.208 47 147 47.672 147 48.5 L 147 48.5 C 147 49.328 146.208 50 145.233 50 L 110.767 50 C 109.792 50 109 49.328 109 48.5 L 109 48.5 C 109 47.672 109.792 47 110.767 47 Z" style="stroke:none;fill:#162046;stroke-miterlimit:10;"/><path d="M 102.236 54.68 L 127.204 54.68 C 128.041 54.68 128.72 55.352 128.72 56.18 L 128.72 56.18 C 128.72 57.008 128.041 57.68 127.204 57.68 L 102.236 57.68 C 101.399 57.68 100.72 57.008 100.72 56.18 L 100.72 56.18 C 100.72 55.352 101.399 54.68 102.236 54.68 Z" style="stroke:none;fill:#162046;stroke-miterlimit:10;"/></g><rect x="95.717" y="64.204" width="42" height="2.796" transform="matrix(1,0,0,1,0,0)" fill="rgb(245,146,126)"/><path d="M 133.5 69 L 133.5 69 C 134.328 69 135 69.672 135 70.5 L 135 70.5 C 135 71.328 134.328 72 133.5 72 L 133.5 72 C 132.672 72 132 71.328 132 70.5 L 132 70.5 C 132 69.672 132.672 69 133.5 69 Z" style="stroke:none;fill:#FDDBBD;stroke-miterlimit:10;"/></g></svg>